HIERARCHY
ROOT Hips
{
	OFFSET 0.000000 0.000000 0.000000
	CHANNELS 6 Xposition Yposition Zposition Zrotation Yrotation Xrotation
	JOINT LHipJoint
	{
		OFFSET 0.000000 0.000000 0.000000
		CHANNELS 3 Zrotation Yrotation Xrotation
		JOINT LeftUpLeg
		{
			OFFSET 1.363060 -1.794630 0.839290
			CHANNELS 3 Zrotation Yrotation Xrotation
			JOINT LeftLeg
			{
				OFFSET 2.448110 -6.726130 0.000000
				CHANNELS 3 Zrotation Yrotation Xrotation
				JOINT LeftFoot
				{
					OFFSET 2.562200 -7.039590 0.000000
					CHANNELS 3 Zrotation Yrotation Xrotation
					JOINT LeftToeBase
					{
						OFFSET 0.157640 -0.433110 2.322550
						CHANNELS 3 Zrotation Yrotation Xrotation
						End Site
						{
							OFFSET 0.000000 0.000000 0.000000
						}
					}
				}
			}
		}
	}
	JOINT RHipJoint
	{
		OFFSET 0.000000 0.000000 0.000000
		CHANNELS 3 Zrotation Yrotation Xrotation
		JOINT RightUpLeg
		{
			OFFSET -1.305520 -1.794630 0.839290
			CHANNELS 3 Zrotation Yrotation Xrotation
			JOINT RightLeg
			{
				OFFSET -2.542530 -6.985550 0.000000
				CHANNELS 3 Zrotation Yrotation Xrotation
				JOINT RightFoot
				{
					OFFSET -2.568260 -7.056230 0.000000
					CHANNELS 3 Zrotation Yrotation Xrotation
					JOINT RightToeBase
					{
						OFFSET -0.164730 -0.452590 2.363150
						CHANNELS 3 Zrotation Yrotation Xrotation
						End Site
						{
							OFFSET 0.000000 0.000000 0.000000
						}
					}
				}
			}
		}
	}
	JOINT LowerBack
	{
		OFFSET 0.000000 0.000000 0.000000
		CHANNELS 3 Zrotation Yrotation Xrotation
		JOINT Spine
		{
			OFFSET 0.028270 2.035590 -0.193380
			CHANNELS 3 Zrotation Yrotation Xrotation
			JOINT Spine1
			{
				OFFSET 0.056720 2.048850 -0.042750
				CHANNELS 3 Zrotation Yrotation Xrotation
				JOINT Neck
				{
					OFFSET 0.000000 0.000000 0.000000
					CHANNELS 3 Zrotation Yrotation Xrotation
					JOINT Neck1
					{
						OFFSET -0.054170 1.746240 0.172020
						CHANNELS 3 Zrotation Yrotation Xrotation
						JOINT Head
						{
							OFFSET 0.104070 1.761360 -0.123970
							CHANNELS 3 Zrotation Yrotation Xrotation
							End Site
							{
								OFFSET 0.000000 0.000000 0.000000
							}
						}
					}
				}
				JOINT LeftShoulder
				{
					OFFSET 0.000000 0.000000 0.000000
					CHANNELS 3 Zrotation Yrotation Xrotation
					JOINT LeftArm
					{
						OFFSET 3.362410 1.200890 -0.311210
						CHANNELS 3 Zrotation Yrotation Xrotation
						JOINT LeftForeArm
						{
							OFFSET 4.983000 -0.000000 -0.000000
							CHANNELS 3 Zrotation Yrotation Xrotation
							JOINT LeftHand
							{
								OFFSET 3.483560 -0.000000 -0.000000
								CHANNELS 3 Zrotation Yrotation Xrotation
								JOINT LeftFingerBase
								{
									OFFSET 0.000000 0.000000 0.000000
									CHANNELS 3 Zrotation Yrotation Xrotation
									JOINT LeftHandIndex1
									{
										OFFSET 0.715260 -0.000000 -0.000000
										CHANNELS 3 Zrotation Yrotation Xrotation
										End Site
										{
											OFFSET 0.000000 0.000000 0.000000
										}
									}
								}
								JOINT LThumb
								{
									OFFSET 0.000000 0.000000 0.000000
									CHANNELS 3 Zrotation Yrotation Xrotation
									End Site
									{
										OFFSET 0.000000 0.000000 0.000000
									}
								}
							}
						}
					}
				}
				JOINT RightShoulder
				{
					OFFSET 0.000000 0.000000 0.000000
					CHANNELS 3 Zrotation Yrotation Xrotation
					JOINT RightArm
					{
						OFFSET -3.136600 1.374050 -0.404650
						CHANNELS 3 Zrotation Yrotation Xrotation
						JOINT RightForeArm
						{
							OFFSET -5.241900 -0.000000 -0.000000
							CHANNELS 3 Zrotation Yrotation Xrotation
							JOINT RightHand
							{
								OFFSET -3.444170 -0.000000 -0.000000
								CHANNELS 3 Zrotation Yrotation Xrotation
								JOINT RightFingerBase
								{
									OFFSET 0.000000 0.000000 0.000000
									CHANNELS 3 Zrotation Yrotation Xrotation
									JOINT RightHandIndex1
									{
										OFFSET -0.622530 -0.000000 -0.000000
										CHANNELS 3 Zrotation Yrotation Xrotation
										End Site
										{
											OFFSET 0.000000 0.000000 0.000000
										}
									}
								}
								JOINT RThumb
								{
									OFFSET 0.000000 0.000000 0.000000
									CHANNELS 3 Zrotation Yrotation Xrotation
									End Site
									{
										OFFSET 0.000000 0.000000 0.000000
									}
								}
							}
						}
					}
				}
			}
		}
	}
}
MOTION
Frames: 5
Frame Time: 0.008333
0.005302 0.002545 0.091457 -0.024392 -0.052117 0.135720 -0.079505 -0.027139 -0.043827 0.231263 -0.248347 0.087026 -0.298855 -0.449566 -1.439700 -0.043760 0.243449 0.405260 -0.002869 -0.078485 -0.215794 0.027149 -0.005786 0.035723 -0.080036 -0.086572 0.253200 0.041477 0.071894 -0.211349 -0.040588 0.107604 -0.114809 0.003507 0.036878 -0.101866 0.057944 -0.003652 -0.119387 -0.017654 -0.004860 -0.044864 -0.030809 0.000281 0.044326 -0.000977 0.040478 0.089051 0.008336 0.044410 -0.073628 0.009087 0.019555 -0.039428 0.002132 -0.001974 0.000998 -0.060422 0.011023 -0.170407 -0.054643 0.083437 0.021737 -0.003061 0.003343 0.074927 0.019563 -0.159224 -0.067910 0.000000 0.000000 0.000000 0.053882 -0.173549 0.012594 -0.003848 0.004455 -0.000111 -0.038438 0.137989 0.352595 -0.180263 0.241289 -0.086279 -0.002183 0.013085 -0.181063 -0.104361 -0.153307 0.014613 -0.000000 0.000000 0.000000 -0.075881 -0.155748 -0.082311
0.170806 0.267165 0.274615 0.148998 -0.142096 0.325798 -0.065253 0.042117 -0.003025 0.117640 -0.242732 0.143335 -0.201466 -0.178364 -1.027936 0.027848 0.317615 0.235129 -0.057738 0.238928 -0.637910 -0.361193 -0.121201 -0.596038 -1.026955 -1.805150 0.846597 -0.011493 0.391688 -0.690507 -0.031570 -2.131071 -1.068528 0.020272 0.059510 -2.453007 -0.460623 -0.000645 -0.675280 -0.234231 -0.149320 -0.048982 -0.488305 0.183305 -0.714077 0.058241 -0.388780 0.313955 -0.284246 -0.295270 -0.675324 0.230073 -0.075453 -0.306010 -0.274292 -0.263740 -0.076739 -1.563664 -0.887963 -0.044224 -0.857069 -0.581816 -0.082022 -0.090610 -0.097723 0.080051 1.335928 -5.086191 -0.624297 0.062830 0.000000 0.000000 -1.080577 0.052831 -0.795238 -0.039088 -0.034088 -0.047489 -0.363883 -0.938637 0.003244 -1.072558 -0.327734 -0.594137 -0.078185 -0.047173 -0.738809 -3.827769 -2.024548 -3.412900 -0.062481 0.000000 0.000000 -3.321559 -2.567459 -3.112922
0.062070 -0.059668 -0.865292 0.109594 -0.338329 0.225628 -0.326199 -0.089322 -0.065240 -0.306442 -0.435765 -0.832659 -0.236711 -0.138649 -1.096326 0.092214 0.388671 -0.066394 -0.129123 -0.229563 -1.213033 -0.232289 -0.052175 -0.800725 -0.590179 -2.807493 1.075443 -0.431373 -0.736018 -2.251139 -0.449500 -3.324679 -3.442425 -0.085806 -0.069617 -3.805052 -0.820203 -0.218763 -1.699812 -0.614311 -0.456370 -0.573310 -0.973388 0.116015 -1.405083 -0.491679 -0.893054 -0.066216 -0.448569 -0.822836 -1.493412 0.057619 -0.227217 -0.662146 -0.600626 -0.618999 -0.179484 -4.609339 -2.092042 -0.934640 -1.290511 -0.849498 -0.097380 -0.160007 -0.169355 2.681558 2.806668 -7.363494 -1.634892 0.060570 0.000000 0.000000 -2.888951 0.359855 -2.409495 -0.328443 -0.147712 -0.106113 -0.980494 -1.962741 -0.484742 -1.777447 -0.625189 -0.908623 -0.124179 -0.069105 -0.970821 -5.400689 -2.865942 -4.903550 -0.081216 0.000000 0.000000 -4.640376 -3.700060 -3.052764
0.127799 -0.122843 -1.356635 0.163760 -0.351895 0.352466 -0.311671 -0.038545 0.020540 -0.426583 -0.406505 -1.192643 -0.171260 0.027718 -0.741357 0.154444 0.447360 -0.208820 -0.173295 -0.801878 -1.729804 -0.154174 0.001511 -1.124072 -0.111072 -3.567312 1.789227 -0.490871 -0.873604 -1.895185 -0.460180 -3.602463 -3.069259 -0.000629 0.319955 -3.305081 -0.877883 -0.056926 -1.390438 -0.483338 -0.175147 -0.301710 -0.829495 0.309880 -1.304505 -0.641859 -0.836617 1.187838 -0.219621 -0.661476 -1.367128 0.229743 -0.120207 -0.576777 -0.371816 -0.531040 -0.159752 -4.105478 -1.848807 0.729506 -1.031781 -0.358862 0.068912 -0.163860 -0.123523 5.734979 3.737812 -6.051264 -1.532134 0.247003 0.000000 0.000000 -1.788963 3.642016 -1.537348 -0.189047 0.054164 -0.034587 0.317179 -2.016550 0.215906 -1.512021 -0.034070 -0.789748 -0.110333 -0.033429 -0.648791 -3.293248 -2.070231 -3.637976 -0.032047 0.000000 0.000000 -2.780600 -2.960485 -0.339554
0.110130 -0.196352 -2.401538 0.049816 -0.405822 0.351149 -0.384390 0.041617 0.117610 -0.464204 -0.323520 -1.271357 -0.077940 0.248054 -0.236303 0.142046 0.490400 0.333972 -0.079175 -1.362636 -1.345040 -0.223704 -0.022644 -0.915385 0.109749 -2.993273 4.756869 -0.025546 -0.938533 -1.298523 -0.101383 -2.741346 -1.528299 -0.173219 -0.076817 -0.173266 -0.081478 0.040023 -1.014122 -0.533113 0.142864 -0.259188 -0.650380 0.142747 -1.632611 -1.198449 -1.109864 2.337152 0.061050 -0.454914 -1.110709 0.105937 -0.111985 -0.459325 -0.182127 -0.575719 -0.130835 -1.764212 -0.952370 -1.394491 -0.800939 0.310295 0.224532 -0.053159 0.047128 5.264976 2.107845 2.434740 -0.727736 0.419936 0.000000 0.000000 -3.965175 4.806369 -2.538744 -0.360886 -0.025288 -0.051816 0.482871 -2.243643 0.443933 -2.039765 0.042021 -1.202312 -0.180019 -0.040630 -0.686521 -4.132228 -2.409549 -4.287548 -0.039718 0.000000 0.000000 -3.259668 -3.465628 -1.689414
